# xmcd CD database file
#
# Track frame offsets:
#	150
#	19277
#	32048
#	61049
#	77461
#	96922
#
# Disc length: 1554 seconds
#
# Revision: 0
# Processed by: cddbd v1.5.2PL0 Copyright (c) Steve Scherf et al.
# Submitted via: CDex 1.70beta1
#
DISCID=3d061006
DTITLE=Laura Cantrell - Trains and Boats and Planes
DYEAR=2008
DGENRE=Country
TTITLE0=Trains and Boats and Planes
TTITLE1=Train of Life
TTITLE2=The Wreck of the Edmund Fitzgerald
TTITLE3=Howard Huges Blues
TTITLE4=Love Vigilantes
TTITLE5=Silver Wings
EXTD=YEAR: 2008
EXTT0=
EXTT1=
EXTT2=
EXTT3=
EXTT4=
EXTT5=
PLAYORDER=
